<mxfile host="app.diagrams.net" modified="2021-05-18T09:44:55.361Z" agent="5.0 (Macintosh; Intel Mac OS X 10_15_7) AppleWebKit/537.36 (KHTML, like Gecko) Chrome/90.0.4430.212 Safari/537.36" etag="52taGOs171glUvjjK6ql" version="14.6.9" type="github">
  <diagram id="0RXWvG3WokeMribMbw2U" name="Page-1">
    <mxGraphModel dx="2286" dy="886" grid="1" gridSize="10" guides="1" tooltips="1" connect="1" arrows="1" fold="1" page="0" pageScale="1" pageWidth="827" pageHeight="1169" math="0" shadow="0">
      <root>
        <mxCell id="0" />
        <mxCell id="1" parent="0" />
        <mxCell id="bCQYhc-0GvxcsIBP5MU4-1" value="Actor" style="shape=umlActor;verticalLabelPosition=bottom;verticalAlign=top;html=1;outlineConnect=0;" vertex="1" parent="1">
          <mxGeometry x="-240" y="360" width="30" height="60" as="geometry" />
        </mxCell>
        <mxCell id="bCQYhc-0GvxcsIBP5MU4-3" value="Load Balancer(s)" style="rounded=0;whiteSpace=wrap;html=1;" vertex="1" parent="1">
          <mxGeometry x="-160" y="200" width="60" height="360" as="geometry" />
        </mxCell>
        <mxCell id="bCQYhc-0GvxcsIBP5MU4-4" value="" style="whiteSpace=wrap;html=1;aspect=fixed;" vertex="1" parent="1">
          <mxGeometry x="150" y="300" width="80" height="80" as="geometry" />
        </mxCell>
        <mxCell id="bCQYhc-0GvxcsIBP5MU4-5" value="" style="whiteSpace=wrap;html=1;aspect=fixed;" vertex="1" parent="1">
          <mxGeometry x="160" y="310" width="80" height="80" as="geometry" />
        </mxCell>
        <mxCell id="bCQYhc-0GvxcsIBP5MU4-6" value="" style="whiteSpace=wrap;html=1;aspect=fixed;" vertex="1" parent="1">
          <mxGeometry x="170" y="320" width="80" height="80" as="geometry" />
        </mxCell>
        <mxCell id="bCQYhc-0GvxcsIBP5MU4-7" value="" style="whiteSpace=wrap;html=1;aspect=fixed;" vertex="1" parent="1">
          <mxGeometry x="180" y="330" width="80" height="80" as="geometry" />
        </mxCell>
        <mxCell id="bCQYhc-0GvxcsIBP5MU4-28" style="edgeStyle=orthogonalEdgeStyle;rounded=0;orthogonalLoop=1;jettySize=auto;html=1;entryX=0.25;entryY=0;entryDx=0;entryDy=0;" edge="1" parent="1" source="bCQYhc-0GvxcsIBP5MU4-8" target="bCQYhc-0GvxcsIBP5MU4-10">
          <mxGeometry relative="1" as="geometry" />
        </mxCell>
        <mxCell id="bCQYhc-0GvxcsIBP5MU4-29" style="edgeStyle=orthogonalEdgeStyle;rounded=0;orthogonalLoop=1;jettySize=auto;html=1;exitX=1;exitY=0.25;exitDx=0;exitDy=0;entryX=0;entryY=0;entryDx=0;entryDy=27.5;entryPerimeter=0;" edge="1" parent="1" source="bCQYhc-0GvxcsIBP5MU4-8" target="bCQYhc-0GvxcsIBP5MU4-9">
          <mxGeometry relative="1" as="geometry" />
        </mxCell>
        <mxCell id="bCQYhc-0GvxcsIBP5MU4-8" value="Submitters" style="whiteSpace=wrap;html=1;aspect=fixed;" vertex="1" parent="1">
          <mxGeometry x="190" y="340" width="80" height="80" as="geometry" />
        </mxCell>
        <mxCell id="bCQYhc-0GvxcsIBP5MU4-34" style="edgeStyle=orthogonalEdgeStyle;rounded=0;orthogonalLoop=1;jettySize=auto;html=1;entryX=0;entryY=0.5;entryDx=0;entryDy=0;" edge="1" parent="1" source="bCQYhc-0GvxcsIBP5MU4-9" target="bCQYhc-0GvxcsIBP5MU4-14">
          <mxGeometry relative="1" as="geometry" />
        </mxCell>
        <mxCell id="bCQYhc-0GvxcsIBP5MU4-9" value="URLs" style="shape=cylinder3;whiteSpace=wrap;html=1;boundedLbl=1;backgroundOutline=1;size=15;" vertex="1" parent="1">
          <mxGeometry x="390" y="240" width="120" height="80" as="geometry" />
        </mxCell>
        <mxCell id="bCQYhc-0GvxcsIBP5MU4-10" value="" style="rounded=0;whiteSpace=wrap;html=1;" vertex="1" parent="1">
          <mxGeometry x="300" y="420" width="320" height="40" as="geometry" />
        </mxCell>
        <mxCell id="bCQYhc-0GvxcsIBP5MU4-11" value="" style="rounded=0;whiteSpace=wrap;html=1;" vertex="1" parent="1">
          <mxGeometry x="310" y="430" width="320" height="40" as="geometry" />
        </mxCell>
        <mxCell id="bCQYhc-0GvxcsIBP5MU4-12" value="" style="rounded=0;whiteSpace=wrap;html=1;" vertex="1" parent="1">
          <mxGeometry x="320" y="440" width="320" height="40" as="geometry" />
        </mxCell>
        <mxCell id="bCQYhc-0GvxcsIBP5MU4-13" value="SQS with different priority and retry queues" style="rounded=0;whiteSpace=wrap;html=1;" vertex="1" parent="1">
          <mxGeometry x="330" y="450" width="320" height="40" as="geometry" />
        </mxCell>
        <mxCell id="bCQYhc-0GvxcsIBP5MU4-33" style="edgeStyle=orthogonalEdgeStyle;rounded=0;orthogonalLoop=1;jettySize=auto;html=1;exitX=0.856;exitY=-0.05;exitDx=0;exitDy=0;exitPerimeter=0;" edge="1" parent="1" source="bCQYhc-0GvxcsIBP5MU4-10" target="bCQYhc-0GvxcsIBP5MU4-14">
          <mxGeometry relative="1" as="geometry">
            <Array as="points">
              <mxPoint x="574" y="380" />
            </Array>
          </mxGeometry>
        </mxCell>
        <mxCell id="bCQYhc-0GvxcsIBP5MU4-14" value="" style="whiteSpace=wrap;html=1;aspect=fixed;" vertex="1" parent="1">
          <mxGeometry x="760" y="320" width="80" height="80" as="geometry" />
        </mxCell>
        <mxCell id="bCQYhc-0GvxcsIBP5MU4-15" value="" style="whiteSpace=wrap;html=1;aspect=fixed;" vertex="1" parent="1">
          <mxGeometry x="770" y="330" width="80" height="80" as="geometry" />
        </mxCell>
        <mxCell id="bCQYhc-0GvxcsIBP5MU4-16" value="" style="whiteSpace=wrap;html=1;aspect=fixed;" vertex="1" parent="1">
          <mxGeometry x="780" y="340" width="80" height="80" as="geometry" />
        </mxCell>
        <mxCell id="bCQYhc-0GvxcsIBP5MU4-17" value="" style="whiteSpace=wrap;html=1;aspect=fixed;" vertex="1" parent="1">
          <mxGeometry x="790" y="350" width="80" height="80" as="geometry" />
        </mxCell>
        <mxCell id="bCQYhc-0GvxcsIBP5MU4-18" value="Worker Pool" style="whiteSpace=wrap;html=1;aspect=fixed;" vertex="1" parent="1">
          <mxGeometry x="800" y="360" width="80" height="80" as="geometry" />
        </mxCell>
        <mxCell id="bCQYhc-0GvxcsIBP5MU4-27" style="edgeStyle=orthogonalEdgeStyle;rounded=0;orthogonalLoop=1;jettySize=auto;html=1;" edge="1" parent="1" source="bCQYhc-0GvxcsIBP5MU4-26">
          <mxGeometry relative="1" as="geometry">
            <mxPoint x="140" y="360" as="targetPoint" />
          </mxGeometry>
        </mxCell>
        <mxCell id="bCQYhc-0GvxcsIBP5MU4-26" value="Gateway" style="rounded=0;whiteSpace=wrap;html=1;" vertex="1" parent="1">
          <mxGeometry x="-40" y="280" width="80" height="160" as="geometry" />
        </mxCell>
      </root>
    </mxGraphModel>
  </diagram>
</mxfile>
